# xmcd
#
# Track frame offsets:
#	150
#	14927
#	32347
#	46162
#	57860
#	75225
#	106917
#	125810
#	137480
#	159327
#	173205
#	188367
#
# Disc length: 2857 seconds
#
# Revision: 1
# Processed by: cddbd v1.5.2PL0 Copyright (c) Steve Scherf et al.
# Submitted via: audiograbber 1.83.01
#
DISCID=8c0b270c
DTITLE=PAUL SIMON - GREATEST HITS LIVE
DYEAR=1900
DGENRE=POP
TTITLE0=JESUS IS THE ANSWER
TTITLE1=AMERICA
TTITLE2=LOVES ME LIKE A ROCK
TTITLE3=ME AND JULIO DOWN BY THE SCHOOLYARD
TTITLE4=AMERICAN TUNE
TTITLE5=BRIDGE OVER TROUBLED WATERS
TTITLE6=THE SOUND OF SILENCE
TTITLE7=HOMEWARD BOUND
TTITLE8=DUNCAN
TTITLE9=EL CONDOR PASA (IF I COULD)
TTITLE10=MOTHER AND CHILD REUNION
TTITLE11=THE BOXER
EXTD=
EXTT0=
EXTT1=
EXTT2=
EXTT3=
EXTT4=
EXTT5=
EXTT6=
EXTT7=
EXTT8=
EXTT9=
EXTT10=
EXTT11=
PLAYORDER=
